<svg width="31" height="32" viewBox="0 0 31 32" fill="none" xmlns="http://www.w3.org/2000/svg">
<g filter="url(#filter0_d_39931_9)">
<path fill-rule="evenodd" clip-rule="evenodd" d="M26.54 12.2614C26.54 11.4459 26.4668 10.6618 26.3309 9.90909H15.5V14.3575H21.6891C21.4225 15.795 20.6123 17.013 19.3943 17.8284V20.7139H23.1109C25.2855 18.7118 26.54 15.7636 26.54 12.2614Z" fill="#4285F4"/>
<path fill-rule="evenodd" clip-rule="evenodd" d="M15.5 23.4998C18.605 23.4998 21.2081 22.4701 23.1109 20.7137L19.3943 17.8282C18.3645 18.5182 17.0472 18.926 15.5 18.926C12.5047 18.926 9.96951 16.903 9.06519 14.1848H5.22314V17.1644C7.11542 20.9228 11.0045 23.4998 15.5 23.4998Z" fill="#34A853"/>
<path fill-rule="evenodd" clip-rule="evenodd" d="M9.06523 14.1851C8.83523 13.4951 8.70455 12.758 8.70455 12.0001C8.70455 11.2421 8.83523 10.5051 9.06523 9.81506V6.83552H5.22318C4.44432 8.38802 4 10.1444 4 12.0001C4 13.8557 4.44432 15.6121 5.22318 17.1646L9.06523 14.1851Z" fill="#FBBC05"/>
<path fill-rule="evenodd" clip-rule="evenodd" d="M15.5 5.07386C17.1884 5.07386 18.7043 5.65409 19.8961 6.79364L23.1945 3.49523C21.2029 1.63955 18.5997 0.5 15.5 0.5C11.0045 0.5 7.11542 3.07705 5.22314 6.83545L9.06519 9.815C9.96951 7.09682 12.5047 5.07386 15.5 5.07386Z" fill="#EA4335"/>
</g>
<defs>
<filter id="filter0_d_39931_9" x="0" y="0.5" width="30.54" height="30.9998" filterUnits="userSpaceOnUse" color-interpolation-filters="sRGB">
<feFlood flood-opacity="0" result="BackgroundImageFix"/>
<feColorMatrix in="SourceAlpha" type="matrix" values="0 0 0 0 0 0 0 0 0 0 0 0 0 0 0 0 0 0 127 0" result="hardAlpha"/>
<feOffset dy="4"/>
<feGaussianBlur stdDeviation="2"/>
<feComposite in2="hardAlpha" operator="out"/>
<feColorMatrix type="matrix" values="0 0 0 0 0 0 0 0 0 0 0 0 0 0 0 0 0 0 0.25 0"/>
<feBlend mode="normal" in2="BackgroundImageFix" result="effect1_dropShadow_39931_9"/>
<feBlend mode="normal" in="SourceGraphic" in2="effect1_dropShadow_39931_9" result="shape"/>
</filter>
</defs>
</svg>
