<svg width="234" height="67" viewBox="0 0 234 67" fill="none" xmlns="http://www.w3.org/2000/svg">
<g filter="url(#filter0_dd_60_34)">
<rect x="3" y="3" width="228" height="59" rx="10" fill="#0D606F" shape-rendering="crispEdges"/>
<path fill-rule="evenodd" clip-rule="evenodd" d="M36.5 32.5001C36.5 32.1686 36.6317 31.8507 36.8661 31.6162C37.1005 31.3818 37.4185 31.2501 37.75 31.2501H67.2325L59.365 23.3851C59.1303 23.1504 58.9984 22.8321 58.9984 22.5001C58.9984 22.1682 59.1303 21.8498 59.365 21.6151C59.5997 21.3804 59.9181 21.2485 60.25 21.2485C60.5819 21.2485 60.9003 21.3804 61.135 21.6151L71.135 31.6151C71.2514 31.7312 71.3438 31.8692 71.4068 32.021C71.4698 32.1729 71.5022 32.3357 71.5022 32.5001C71.5022 32.6645 71.4698 32.8273 71.4068 32.9792C71.3438 33.1311 71.2514 33.269 71.135 33.3851L61.135 43.3851C60.9003 43.6198 60.5819 43.7517 60.25 43.7517C59.9181 43.7517 59.5997 43.6198 59.365 43.3851C59.1303 43.1504 58.9984 42.8321 58.9984 42.5001C58.9984 42.1682 59.1303 41.8498 59.365 41.6151L67.2325 33.7501H37.75C37.4185 33.7501 37.1005 33.6184 36.8661 33.384C36.6317 33.1496 36.5 32.8316 36.5 32.5001Z" fill="white"/>
<path d="M91.632 41.764C90.32 41.764 89.08 41.54 87.912 41.092C86.76 40.628 85.648 39.948 84.576 39.052L86.136 36.94C87.224 37.82 88.192 38.452 89.04 38.836C89.904 39.204 90.824 39.388 91.8 39.388C92.536 39.388 93.184 39.276 93.744 39.052C94.32 38.812 94.76 38.492 95.064 38.092C95.384 37.692 95.544 37.228 95.544 36.7C95.544 36.012 95.312 35.492 94.848 35.14C94.4 34.772 93.616 34.492 92.496 34.3L89.4 33.772C87.944 33.516 86.856 33.028 86.136 32.308C85.432 31.572 85.08 30.636 85.08 29.5C85.08 28.492 85.336 27.612 85.848 26.86C86.36 26.092 87.072 25.5 87.984 25.084C88.912 24.652 90.008 24.436 91.272 24.436C92.536 24.436 93.736 24.62 94.872 24.988C96.008 25.356 97.056 25.892 98.016 26.596L96.552 28.756C95.704 28.116 94.832 27.636 93.936 27.316C93.04 26.98 92.12 26.812 91.176 26.812C90.504 26.812 89.912 26.916 89.4 27.124C88.904 27.332 88.512 27.62 88.224 27.988C87.952 28.356 87.816 28.764 87.816 29.212C87.816 29.82 88.016 30.292 88.416 30.628C88.832 30.948 89.496 31.188 90.408 31.348L93.408 31.852C95.104 32.156 96.352 32.684 97.152 33.436C97.968 34.188 98.376 35.204 98.376 36.484C98.376 37.508 98.088 38.42 97.512 39.22C96.952 40.02 96.168 40.644 95.16 41.092C94.152 41.54 92.976 41.764 91.632 41.764ZM106.788 41.74C105.636 41.74 104.596 41.468 103.668 40.924C102.74 40.364 102.004 39.62 101.46 38.692C100.916 37.748 100.644 36.684 100.644 35.5C100.644 34.316 100.9 33.26 101.412 32.332C101.924 31.404 102.62 30.668 103.5 30.124C104.396 29.564 105.388 29.284 106.476 29.284C107.596 29.284 108.58 29.556 109.428 30.1C110.292 30.644 110.964 31.38 111.444 32.308C111.94 33.236 112.188 34.3 112.188 35.5V36.148H103.308C103.404 36.804 103.612 37.388 103.932 37.9C104.268 38.396 104.692 38.788 105.204 39.076C105.732 39.364 106.3 39.508 106.908 39.508C107.468 39.508 107.996 39.412 108.492 39.22C109.004 39.012 109.428 38.732 109.764 38.38L111.54 39.988C110.804 40.596 110.052 41.044 109.284 41.332C108.532 41.604 107.7 41.74 106.788 41.74ZM103.332 34.468H109.62C109.524 33.892 109.324 33.38 109.02 32.932C108.732 32.484 108.364 32.132 107.916 31.876C107.484 31.62 107.004 31.492 106.476 31.492C105.948 31.492 105.46 31.62 105.012 31.876C104.58 32.116 104.22 32.46 103.932 32.908C103.644 33.356 103.444 33.876 103.332 34.468ZM120.592 41.74C119.44 41.74 118.4 41.468 117.472 40.924C116.544 40.364 115.808 39.62 115.264 38.692C114.72 37.748 114.448 36.684 114.448 35.5C114.448 34.316 114.704 33.26 115.216 32.332C115.728 31.404 116.424 30.668 117.304 30.124C118.2 29.564 119.192 29.284 120.28 29.284C121.4 29.284 122.384 29.556 123.232 30.1C124.096 30.644 124.768 31.38 125.248 32.308C125.744 33.236 125.992 34.3 125.992 35.5V36.148H117.112C117.208 36.804 117.416 37.388 117.736 37.9C118.072 38.396 118.496 38.788 119.008 39.076C119.536 39.364 120.104 39.508 120.712 39.508C121.272 39.508 121.8 39.412 122.296 39.22C122.808 39.012 123.232 38.732 123.568 38.38L125.344 39.988C124.608 40.596 123.856 41.044 123.088 41.332C122.336 41.604 121.504 41.74 120.592 41.74ZM117.136 34.468H123.424C123.328 33.892 123.128 33.38 122.824 32.932C122.536 32.484 122.168 32.132 121.72 31.876C121.288 31.62 120.808 31.492 120.28 31.492C119.752 31.492 119.264 31.62 118.816 31.876C118.384 32.116 118.024 32.46 117.736 32.908C117.448 33.356 117.248 33.876 117.136 34.468ZM134.485 41.5V24.7H138.229L143.149 34.9L148.045 24.7H151.789V41.5H149.077V28.348L143.125 40.3L137.149 28.276V41.5H134.485ZM160.973 41.716C159.837 41.716 158.805 41.444 157.877 40.9C156.965 40.356 156.245 39.62 155.717 38.692C155.189 37.748 154.925 36.684 154.925 35.5C154.925 34.316 155.189 33.26 155.717 32.332C156.245 31.388 156.965 30.644 157.877 30.1C158.789 29.556 159.821 29.284 160.973 29.284C162.125 29.284 163.149 29.556 164.045 30.1C164.957 30.644 165.677 31.388 166.205 32.332C166.733 33.26 166.997 34.316 166.997 35.5C166.997 36.684 166.733 37.748 166.205 38.692C165.677 39.62 164.957 40.356 164.045 40.9C163.149 41.444 162.125 41.716 160.973 41.716ZM160.973 39.412C161.629 39.412 162.205 39.244 162.701 38.908C163.213 38.572 163.613 38.108 163.901 37.516C164.189 36.908 164.333 36.236 164.333 35.5C164.333 34.748 164.189 34.084 163.901 33.508C163.613 32.916 163.213 32.452 162.701 32.116C162.205 31.764 161.629 31.588 160.973 31.588C160.317 31.588 159.733 31.764 159.221 32.116C158.709 32.452 158.309 32.916 158.021 33.508C157.733 34.084 157.589 34.748 157.589 35.5C157.589 36.252 157.733 36.924 158.021 37.516C158.309 38.108 158.709 38.572 159.221 38.908C159.733 39.244 160.317 39.412 160.973 39.412ZM169.797 41.5V29.476H172.509V32.068C172.861 31.156 173.317 30.46 173.877 29.98C174.437 29.5 175.085 29.26 175.821 29.26C176.045 29.276 176.245 29.3 176.421 29.332C176.597 29.348 176.789 29.404 176.997 29.5V31.876C176.789 31.78 176.549 31.708 176.277 31.66C176.021 31.612 175.765 31.588 175.509 31.588C174.853 31.588 174.261 31.764 173.733 32.116C173.221 32.468 172.813 32.956 172.509 33.58V41.5H169.797ZM184.249 41.74C183.097 41.74 182.057 41.468 181.129 40.924C180.201 40.364 179.465 39.62 178.921 38.692C178.377 37.748 178.105 36.684 178.105 35.5C178.105 34.316 178.361 33.26 178.873 32.332C179.385 31.404 180.081 30.668 180.961 30.124C181.857 29.564 182.849 29.284 183.937 29.284C185.057 29.284 186.041 29.556 186.889 30.1C187.753 30.644 188.425 31.38 188.905 32.308C189.401 33.236 189.649 34.3 189.649 35.5V36.148H180.769C180.865 36.804 181.073 37.388 181.393 37.9C181.729 38.396 182.153 38.788 182.665 39.076C183.193 39.364 183.761 39.508 184.369 39.508C184.929 39.508 185.457 39.412 185.953 39.22C186.465 39.012 186.889 38.732 187.225 38.38L189.001 39.988C188.265 40.596 187.513 41.044 186.745 41.332C185.993 41.604 185.161 41.74 184.249 41.74ZM180.793 34.468H187.081C186.985 33.892 186.785 33.38 186.481 32.932C186.193 32.484 185.825 32.132 185.377 31.876C184.945 31.62 184.465 31.492 183.937 31.492C183.409 31.492 182.921 31.62 182.473 31.876C182.041 32.116 181.681 32.46 181.393 32.908C181.105 33.356 180.905 33.876 180.793 34.468Z" fill="white"/>
</g>
<defs>
<filter id="filter0_dd_60_34" x="0" y="0" width="234" height="67" filterUnits="userSpaceOnUse" color-interpolation-filters="sRGB">
<feFlood flood-opacity="0" result="BackgroundImageFix"/>
<feColorMatrix in="SourceAlpha" type="matrix" values="0 0 0 0 0 0 0 0 0 0 0 0 0 0 0 0 0 0 127 0" result="hardAlpha"/>
<feOffset dy="2"/>
<feGaussianBlur stdDeviation="1.5"/>
<feComposite in2="hardAlpha" operator="out"/>
<feColorMatrix type="matrix" values="0 0 0 0 0.0509804 0 0 0 0 0.376471 0 0 0 0 0.435294 0 0 0 0.16 0"/>
<feBlend mode="normal" in2="BackgroundImageFix" result="effect1_dropShadow_60_34"/>
<feColorMatrix in="SourceAlpha" type="matrix" values="0 0 0 0 0 0 0 0 0 0 0 0 0 0 0 0 0 0 127 0" result="hardAlpha"/>
<feOffset/>
<feGaussianBlur stdDeviation="1.5"/>
<feComposite in2="hardAlpha" operator="out"/>
<feColorMatrix type="matrix" values="0 0 0 0 0.0509804 0 0 0 0 0.376471 0 0 0 0 0.435294 0 0 0 0.08 0"/>
<feBlend mode="normal" in2="effect1_dropShadow_60_34" result="effect2_dropShadow_60_34"/>
<feBlend mode="normal" in="SourceGraphic" in2="effect2_dropShadow_60_34" result="shape"/>
</filter>
</defs>
</svg>
